<!--?xml version="1.0" standalone="no"?-->
              <svg id="sw-js-blob-svg" viewBox="0 0 100 100" xmlns="http://www.w3.org/2000/svg" version="1.1">
                    <defs> 
                        <linearGradient id="sw-gradient" x1="0" x2="1" y1="1" y2="0">
                            <stop id="stop1" stop-color="rgba(0, 0, 0, 1)" offset="0%"></stop>
                            <stop id="stop2" stop-color="rgba(0, 76.576, 237.479, 1)" offset="100%"></stop>
                        </linearGradient>
                    </defs>
                <path fill="url(#sw-gradient)" d="M17.9,-32.1C23.9,-27.6,29.9,-24.1,32.6,-19C35.3,-13.8,34.8,-6.9,34.9,0.1C35.1,7.1,35.9,14.1,33.2,19.3C30.4,24.4,24.2,27.7,18,29.8C11.9,31.9,6,32.9,-1,34.7C-8,36.5,-16.1,39.2,-22.2,37.1C-28.4,34.9,-32.6,28.1,-35.8,21.1C-39.1,14.2,-41.3,7.1,-41.4,0C-41.4,-7.1,-39.2,-14.2,-34.6,-19C-30.1,-23.7,-23.3,-26.1,-17.1,-30.5C-11,-35,-5.5,-41.5,0.2,-41.9C6,-42.3,11.9,-36.7,17.9,-32.1Z" width="100%" height="100%" transform="translate(50 50)" stroke-width="0" style="transition: all 0.3s ease 0s;" stroke="url(#sw-gradient)"></path>
              </svg>